<?xml version="1.0" encoding="utf-8"?>
<!-- Generator: Adobe Illustrator 17.1.0, SVG Export Plug-In . SVG Version: 6.00 Build 0)  -->
<svg version="1.2" baseProfile="tiny" id="Layer_1" xmlns="http://www.w3.org/2000/svg" xmlns:xlink="http://www.w3.org/1999/xlink"
	 x="0px" y="0px" viewBox="0 0 535.5 111" xml:space="preserve">
<g>
	<text transform="matrix(1 0 0 1 125.1514 87.6908)" fill="#FFFFFF" font-family="'Roboto-Thin'" font-size="90">M</text>
	<text transform="matrix(1 0 0 1 202.3194 87.6908)" fill="#FFFFFF" font-family="'Roboto-Thin'" font-size="90">o</text>
	<text transform="matrix(1 0 0 1 250.9229 87.6908)" fill="#FFFFFF" font-family="'Roboto-Thin'" font-size="90">v</text>
	<text transform="matrix(1 0 0 1 293.9014 87.6908)" fill="#FFFFFF" font-family="'Roboto-Thin'" font-size="90">i</text>
	<text transform="matrix(1 0 0 1 312.4463 87.6908)" fill="#FFFFFF" font-family="'Roboto-Thin'" font-size="90">e</text>
	<text transform="matrix(1 0 0 1 357.7979 87.6908)" fill="#FFFFFF" font-family="'Roboto-Black'" font-size="90">W</text>
	<text transform="matrix(1 0 0 1 436.3721 87.6908)" fill="#FFFFFF" font-family="'Roboto-Black'" font-size="90">e</text>
	<text transform="matrix(1 0 0 1 483.9649 87.6908)" fill="#FFFFFF" font-family="'Roboto-Black'" font-size="90">b</text>
	<g>
		<polygon fill="#FFFFFF" points="54.9,44.6 55.1,44.3 49,35 41,36.9 47,46.5 		"/>
		<polygon fill="#FFFFFF" points="75,39.8 83.2,37.8 77.1,28.2 68.5,30.2 68.3,30.4 69,30.7 		"/>
		<polygon fill="#FFFFFF" points="69,41.2 69.1,41 62.9,31.6 55.1,33.5 54.9,33.9 61.1,43.2 		"/>
		<polygon fill="#FFFFFF" points="40.9,48 41.1,47.6 35.5,38.4 35.4,38.3 26.9,40.3 26.8,40.6 32.6,49.5 		"/>
		<path fill="#FFFFFF" d="M56.2,1.4C26.9,1.4,3.3,25.6,3.3,55.5s23.7,54.1,52.9,54.1c29.2,0,52.9-24.2,52.9-54.1S85.4,1.4,56.2,1.4z
			 M89.5,87.2L89,87.7l-62.7,0l-0.5-0.5l0-31.9l0.6-0.6l0.7,0l-4.2-16.5l0.2-0.3l60.2-14.6l0.4,0.2l4.2,16.3l-0.2,0.3L27.6,54.6
			l0,0.1l61.4,0l0.5,0.5L89.5,87.2z"/>
		<polygon fill="#FFFFFF" points="84.2,59.7 31.4,59.7 30.8,60.2 30.8,82.2 31.4,82.8 57.6,82.8 84.1,82.8 84.4,82.5 84.4,59.9 		
			"/>
	</g>
</g>
</svg>
